# This file uses centimeters as units for non-parametric coordinates.

mtllib RoadCloased.mtl
g default
v 4.850000 0.139158 -0.872076
v 5.150000 0.139158 -0.872076
v 4.850000 2.958236 0.153984
v 5.150000 2.958236 0.153984
v 4.850000 3.060842 -0.127924
v 5.150000 3.060842 -0.127924
v 4.850000 0.241764 -1.153984
v 5.150000 0.241764 -1.153984
vt 0.375000 0.000000
vt 0.625000 0.000000
vt 0.375000 0.250000
vt 0.625000 0.250000
vt 0.375000 0.500000
vt 0.625000 0.500000
vt 0.375000 0.750000
vt 0.625000 0.750000
vt 0.375000 1.000000
vt 0.625000 1.000000
vt 0.875000 0.000000
vt 0.875000 0.250000
vt 0.125000 0.000000
vt 0.125000 0.250000
vn 0.000000 -0.342020 0.939693
vn 0.000000 -0.342020 0.939693
vn 0.000000 -0.342020 0.939693
vn 0.000000 -0.342020 0.939693
vn 0.000000 0.939693 0.342020
vn 0.000000 0.939693 0.342020
vn 0.000000 0.939693 0.342020
vn 0.000000 0.939693 0.342020
vn 0.000000 0.342020 -0.939693
vn 0.000000 0.342020 -0.939693
vn 0.000000 0.342020 -0.939693
vn 0.000000 0.342020 -0.939693
vn 0.000000 -0.939693 -0.342020
vn 0.000000 -0.939693 -0.342020
vn 0.000000 -0.939693 -0.342020
vn 0.000000 -0.939693 -0.342020
vn 1.000000 0.000000 0.000000
vn 1.000000 0.000000 0.000000
vn 1.000000 0.000000 0.000000
vn 1.000000 0.000000 0.000000
vn -1.000000 0.000000 0.000000
vn -1.000000 0.000000 0.000000
vn -1.000000 0.000000 0.000000
vn -1.000000 0.000000 0.000000
s off
g pCube1
usemtl initialShadingGroup
f 1/1/1 2/2/2 4/4/3 3/3/4
f 3/3/5 4/4/6 6/6/7 5/5/8
f 5/5/9 6/6/10 8/8/11 7/7/12
f 7/7/13 8/8/14 2/10/15 1/9/16
f 2/2/17 8/11/18 6/12/19 4/4/20
f 7/13/21 1/1/22 3/3/23 5/14/24
g default
v -5.150000 0.139158 -0.872076
v -4.850000 0.139158 -0.872076
v -5.150000 2.958236 0.153984
v -4.850000 2.958236 0.153984
v -5.150000 3.060842 -0.127924
v -4.850000 3.060842 -0.127924
v -5.150000 0.241764 -1.153984
v -4.850000 0.241764 -1.153984
vt 0.375000 0.000000
vt 0.625000 0.000000
vt 0.375000 0.250000
vt 0.625000 0.250000
vt 0.375000 0.500000
vt 0.625000 0.500000
vt 0.375000 0.750000
vt 0.625000 0.750000
vt 0.375000 1.000000
vt 0.625000 1.000000
vt 0.875000 0.000000
vt 0.875000 0.250000
vt 0.125000 0.000000
vt 0.125000 0.250000
vn 0.000000 -0.342020 0.939693
vn 0.000000 -0.342020 0.939693
vn 0.000000 -0.342020 0.939693
vn 0.000000 -0.342020 0.939693
vn 0.000000 0.939693 0.342020
vn 0.000000 0.939693 0.342020
vn 0.000000 0.939693 0.342020
vn 0.000000 0.939693 0.342020
vn 0.000000 0.342020 -0.939693
vn 0.000000 0.342020 -0.939693
vn 0.000000 0.342020 -0.939693
vn 0.000000 0.342020 -0.939693
vn 0.000000 -0.939693 -0.342020
vn 0.000000 -0.939693 -0.342020
vn 0.000000 -0.939693 -0.342020
vn 0.000000 -0.939693 -0.342020
vn 1.000000 0.000000 0.000000
vn 1.000000 0.000000 0.000000
vn 1.000000 0.000000 0.000000
vn 1.000000 0.000000 0.000000
vn -1.000000 0.000000 0.000000
vn -1.000000 0.000000 0.000000
vn -1.000000 0.000000 0.000000
vn -1.000000 0.000000 0.000000
s off
g pCube2
usemtl initialShadingGroup
f 9/15/25 10/16/26 12/18/27 11/17/28
f 11/17/29 12/18/30 14/20/31 13/19/32
f 13/19/33 14/20/34 16/22/35 15/21/36
f 15/21/37 16/22/38 10/24/39 9/23/40
f 10/16/41 16/25/42 14/26/43 12/18/44
f 15/27/45 9/15/46 11/17/47 13/28/48
g default
v 4.850000 0.241764 1.153984
v 5.150000 0.241764 1.153984
v 4.850000 3.060842 0.127924
v 5.150000 3.060842 0.127924
v 4.850000 2.958236 -0.153984
v 5.150000 2.958236 -0.153984
v 4.850000 0.139158 0.872076
v 5.150000 0.139158 0.872076
vt 0.375000 0.000000
vt 0.625000 0.000000
vt 0.375000 0.250000
vt 0.625000 0.250000
vt 0.375000 0.500000
vt 0.625000 0.500000
vt 0.375000 0.750000
vt 0.625000 0.750000
vt 0.375000 1.000000
vt 0.625000 1.000000
vt 0.875000 0.000000
vt 0.875000 0.250000
vt 0.125000 0.000000
vt 0.125000 0.250000
vn 0.000000 0.342020 0.939693
vn 0.000000 0.342020 0.939693
vn 0.000000 0.342020 0.939693
vn 0.000000 0.342020 0.939693
vn 0.000000 0.939693 -0.342020
vn 0.000000 0.939693 -0.342020
vn 0.000000 0.939693 -0.342020
vn 0.000000 0.939693 -0.342020
vn 0.000000 -0.342020 -0.939693
vn 0.000000 -0.342020 -0.939693
vn 0.000000 -0.342020 -0.939693
vn 0.000000 -0.342020 -0.939693
vn 0.000000 -0.939693 0.342020
vn 0.000000 -0.939693 0.342020
vn 0.000000 -0.939693 0.342020
vn 0.000000 -0.939693 0.342020
vn 1.000000 0.000000 0.000000
vn 1.000000 0.000000 0.000000
vn 1.000000 0.000000 0.000000
vn 1.000000 0.000000 0.000000
vn -1.000000 0.000000 0.000000
vn -1.000000 0.000000 0.000000
vn -1.000000 0.000000 0.000000
vn -1.000000 0.000000 0.000000
s off
g pCube3
usemtl initialShadingGroup
f 17/29/49 18/30/50 20/32/51 19/31/52
f 19/31/53 20/32/54 22/34/55 21/33/56
f 21/33/57 22/34/58 24/36/59 23/35/60
f 23/35/61 24/36/62 18/38/63 17/37/64
f 18/30/65 24/39/66 22/40/67 20/32/68
f 23/41/69 17/29/70 19/31/71 21/42/72
g default
v -5.150000 0.241764 1.153984
v -4.850000 0.241764 1.153984
v -5.150000 3.060842 0.127924
v -4.850000 3.060842 0.127924
v -5.150000 2.958236 -0.153984
v -4.850000 2.958236 -0.153984
v -5.150000 0.139158 0.872076
v -4.850000 0.139158 0.872076
vt 0.375000 0.000000
vt 0.625000 0.000000
vt 0.375000 0.250000
vt 0.625000 0.250000
vt 0.375000 0.500000
vt 0.625000 0.500000
vt 0.375000 0.750000
vt 0.625000 0.750000
vt 0.375000 1.000000
vt 0.625000 1.000000
vt 0.875000 0.000000
vt 0.875000 0.250000
vt 0.125000 0.000000
vt 0.125000 0.250000
vn 0.000000 0.342020 0.939693
vn 0.000000 0.342020 0.939693
vn 0.000000 0.342020 0.939693
vn 0.000000 0.342020 0.939693
vn 0.000000 0.939693 -0.342020
vn 0.000000 0.939693 -0.342020
vn 0.000000 0.939693 -0.342020
vn 0.000000 0.939693 -0.342020
vn 0.000000 -0.342020 -0.939693
vn 0.000000 -0.342020 -0.939693
vn 0.000000 -0.342020 -0.939693
vn 0.000000 -0.342020 -0.939693
vn 0.000000 -0.939693 0.342020
vn 0.000000 -0.939693 0.342020
vn 0.000000 -0.939693 0.342020
vn 0.000000 -0.939693 0.342020
vn 1.000000 0.000000 0.000000
vn 1.000000 0.000000 0.000000
vn 1.000000 0.000000 0.000000
vn 1.000000 0.000000 0.000000
vn -1.000000 0.000000 0.000000
vn -1.000000 0.000000 0.000000
vn -1.000000 0.000000 0.000000
vn -1.000000 0.000000 0.000000
s off
g pCube4
usemtl initialShadingGroup
f 25/43/73 26/44/74 28/46/75 27/45/76
f 27/45/77 28/46/78 30/48/79 29/47/80
f 29/47/81 30/48/82 32/50/83 31/49/84
f 31/49/85 32/50/86 26/52/87 25/51/88
f 26/44/89 32/53/90 30/54/91 28/46/92
f 31/55/93 25/43/94 27/45/95 29/56/96
g default
v 5.000000 3.088381 -0.117557
v 5.000000 2.988381 -0.190211
v 5.000000 2.864774 -0.190211
v 5.000000 2.764774 -0.117557
v 5.000000 2.726577 0.000000
v 5.000000 2.764774 0.117557
v 5.000000 2.864774 0.190211
v 5.000000 2.988381 0.190211
v 5.000000 3.088381 0.117557
v 5.000000 3.126577 0.000000
v -5.000000 3.088381 -0.117557
v -5.000000 2.988381 -0.190211
v -5.000000 2.864774 -0.190211
v -5.000000 2.764774 -0.117557
v -5.000000 2.726577 0.000000
v -5.000000 2.764774 0.117557
v -5.000000 2.864774 0.190211
v -5.000000 2.988381 0.190211
v -5.000000 3.088381 0.117557
v -5.000000 3.126577 0.000000
v 5.000000 2.926577 0.000000
v -5.000000 2.926577 0.000000
vt 0.626409 0.064409
vt 0.548284 0.007647
vt 0.451716 0.007647
vt 0.373591 0.064409
vt 0.343750 0.156250
vt 0.373591 0.248091
vt 0.451716 0.304853
vt 0.548284 0.304853
vt 0.626409 0.248091
vt 0.656250 0.156250
vt 0.375000 0.312500
vt 0.400000 0.312500
vt 0.425000 0.312500
vt 0.450000 0.312500
vt 0.475000 0.312500
vt 0.500000 0.312500
vt 0.525000 0.312500
vt 0.550000 0.312500
vt 0.575000 0.312500
vt 0.600000 0.312500
vt 0.625000 0.312500
vt 0.375000 0.688440
vt 0.400000 0.688440
vt 0.425000 0.688440
vt 0.450000 0.688440
vt 0.475000 0.688440
vt 0.500000 0.688440
vt 0.525000 0.688440
vt 0.550000 0.688440
vt 0.575000 0.688440
vt 0.600000 0.688440
vt 0.625000 0.688440
vt 0.626409 0.751909
vt 0.548284 0.695147
vt 0.451716 0.695147
vt 0.373591 0.751909
vt 0.343750 0.843750
vt 0.373591 0.935591
vt 0.451716 0.992353
vt 0.548284 0.992353
vt 0.626409 0.935591
vt 0.656250 0.843750
vt 0.500000 0.150000
vt 0.500000 0.837500
vn 0.000000 0.587785 -0.809017
vn 0.000000 0.587785 -0.809017
vn 0.000000 0.587785 -0.809017
vn 0.000000 0.587785 -0.809017
vn -0.000000 -0.000000 -1.000000
vn -0.000000 -0.000000 -1.000000
vn -0.000000 -0.000000 -1.000000
vn -0.000000 -0.000000 -1.000000
vn -0.000000 -0.587785 -0.809017
vn -0.000000 -0.587785 -0.809017
vn -0.000000 -0.587785 -0.809017
vn -0.000000 -0.587785 -0.809017
vn -0.000000 -0.951057 -0.309017
vn -0.000000 -0.951057 -0.309017
vn -0.000000 -0.951057 -0.309017
vn -0.000000 -0.951057 -0.309017
vn 0.000000 -0.951057 0.309017
vn 0.000000 -0.951057 0.309017
vn 0.000000 -0.951057 0.309017
vn 0.000000 -0.951057 0.309017
vn 0.000000 -0.587785 0.809017
vn 0.000000 -0.587785 0.809017
vn 0.000000 -0.587785 0.809017
vn 0.000000 -0.587785 0.809017
vn 0.000000 0.000000 1.000000
vn 0.000000 0.000000 1.000000
vn 0.000000 0.000000 1.000000
vn 0.000000 0.000000 1.000000
vn 0.000000 0.587785 0.809017
vn 0.000000 0.587785 0.809017
vn 0.000000 0.587785 0.809017
vn 0.000000 0.587785 0.809017
vn 0.000000 0.951056 0.309017
vn 0.000000 0.951056 0.309017
vn 0.000000 0.951056 0.309017
vn 0.000000 0.951056 0.309017
vn 0.000000 0.951057 -0.309017
vn 0.000000 0.951057 -0.309017
vn 0.000000 0.951057 -0.309017
vn 0.000000 0.951057 -0.309017
vn 1.000000 0.000000 0.000001
vn 1.000000 0.000000 0.000000
vn 1.000000 0.000000 -0.000000
vn 1.000000 0.000000 0.000001
vn 1.000000 0.000000 0.000000
vn 1.000000 0.000000 0.000000
vn 1.000000 0.000000 -0.000001
vn 1.000000 0.000000 -0.000001
vn 1.000000 0.000000 0.000000
vn 1.000000 0.000000 0.000000
vn 1.000000 0.000000 0.000000
vn -1.000000 0.000000 0.000000
vn -1.000000 0.000000 0.000001
vn -1.000000 0.000000 0.000000
vn -1.000000 0.000000 0.000000
vn -1.000000 0.000000 -0.000001
vn -1.000000 0.000000 0.000000
vn -1.000000 0.000000 0.000000
vn -1.000000 0.000000 0.000000
vn -1.000000 0.000000 0.000000
vn -1.000000 0.000000 0.000000
vn -1.000000 0.000000 0.000000
s off
g pCylinder1
usemtl initialShadingGroup
f 33/67/97 34/68/98 44/79/99 43/78/100
f 34/68/101 35/69/102 45/80/103 44/79/104
f 35/69/105 36/70/106 46/81/107 45/80/108
f 36/70/109 37/71/110 47/82/111 46/81/112
f 37/71/113 38/72/114 48/83/115 47/82/116
f 38/72/117 39/73/118 49/84/119 48/83/120
f 39/73/121 40/74/122 50/85/123 49/84/124
f 40/74/125 41/75/126 51/86/127 50/85/128
f 41/75/129 42/76/130 52/87/131 51/86/132
f 42/76/133 33/77/134 43/88/135 52/87/136
s 1
f 34/58/137 33/57/138 53/99/139
f 35/59/140 34/58/137 53/99/139
f 36/60/141 35/59/140 53/99/139
f 37/61/142 36/60/141 53/99/139
f 38/62/143 37/61/142 53/99/139
f 39/63/144 38/62/143 53/99/139
f 40/64/145 39/63/144 53/99/139
f 41/65/146 40/64/145 53/99/139
f 42/66/147 41/65/146 53/99/139
f 33/57/138 42/66/147 53/99/139
s 2
f 43/97/148 44/96/149 54/100/150
f 44/96/149 45/95/151 54/100/150
f 45/95/151 46/94/152 54/100/150
f 46/94/152 47/93/153 54/100/150
f 47/93/153 48/92/154 54/100/150
f 48/92/154 49/91/155 54/100/150
f 49/91/155 50/90/156 54/100/150
f 50/90/156 51/89/157 54/100/150
f 51/89/157 52/98/158 54/100/150
f 52/98/158 43/97/148 54/100/150
g default
v -5.150000 1.004148 0.600000
v -4.850000 1.004148 0.600000
v -5.150000 1.304148 0.600000
v -4.850000 1.304148 0.600000
v -5.150000 1.304148 -0.600000
v -4.850000 1.304148 -0.600000
v -5.150000 1.004148 -0.600000
v -4.850000 1.004148 -0.600000
vt 0.375000 0.000000
vt 0.625000 0.000000
vt 0.375000 0.250000
vt 0.625000 0.250000
vt 0.375000 0.500000
vt 0.625000 0.500000
vt 0.375000 0.750000
vt 0.625000 0.750000
vt 0.375000 1.000000
vt 0.625000 1.000000
vt 0.875000 0.000000
vt 0.875000 0.250000
vt 0.125000 0.000000
vt 0.125000 0.250000
vn 0.000000 0.000000 1.000000
vn 0.000000 0.000000 1.000000
vn 0.000000 0.000000 1.000000
vn 0.000000 0.000000 1.000000
vn 0.000000 1.000000 0.000000
vn 0.000000 1.000000 0.000000
vn 0.000000 1.000000 0.000000
vn 0.000000 1.000000 0.000000
vn 0.000000 0.000000 -1.000000
vn 0.000000 0.000000 -1.000000
vn 0.000000 0.000000 -1.000000
vn 0.000000 0.000000 -1.000000
vn 0.000000 -1.000000 0.000000
vn 0.000000 -1.000000 0.000000
vn 0.000000 -1.000000 0.000000
vn 0.000000 -1.000000 0.000000
vn 1.000000 0.000000 0.000000
vn 1.000000 0.000000 0.000000
vn 1.000000 0.000000 0.000000
vn 1.000000 0.000000 0.000000
vn -1.000000 0.000000 0.000000
vn -1.000000 0.000000 0.000000
vn -1.000000 0.000000 0.000000
vn -1.000000 0.000000 0.000000
s off
g pCube5
usemtl initialShadingGroup
f 55/101/159 56/102/160 58/104/161 57/103/162
f 57/103/163 58/104/164 60/106/165 59/105/166
f 59/105/167 60/106/168 62/108/169 61/107/170
f 61/107/171 62/108/172 56/110/173 55/109/174
f 56/102/175 62/111/176 60/112/177 58/104/178
f 61/113/179 55/101/180 57/103/181 59/114/182
g default
v 4.850000 1.004148 0.600000
v 5.150000 1.004148 0.600000
v 4.850000 1.304148 0.600000
v 5.150000 1.304148 0.600000
v 4.850000 1.304148 -0.600000
v 5.150000 1.304148 -0.600000
v 4.850000 1.004148 -0.600000
v 5.150000 1.004148 -0.600000
vt 0.375000 0.000000
vt 0.625000 0.000000
vt 0.375000 0.250000
vt 0.625000 0.250000
vt 0.375000 0.500000
vt 0.625000 0.500000
vt 0.375000 0.750000
vt 0.625000 0.750000
vt 0.375000 1.000000
vt 0.625000 1.000000
vt 0.875000 0.000000
vt 0.875000 0.250000
vt 0.125000 0.000000
vt 0.125000 0.250000
vn 0.000000 0.000000 1.000000
vn 0.000000 0.000000 1.000000
vn 0.000000 0.000000 1.000000
vn 0.000000 0.000000 1.000000
vn 0.000000 1.000000 0.000000
vn 0.000000 1.000000 0.000000
vn 0.000000 1.000000 0.000000
vn 0.000000 1.000000 0.000000
vn 0.000000 0.000000 -1.000000
vn 0.000000 0.000000 -1.000000
vn 0.000000 0.000000 -1.000000
vn 0.000000 0.000000 -1.000000
vn 0.000000 -1.000000 0.000000
vn 0.000000 -1.000000 0.000000
vn 0.000000 -1.000000 0.000000
vn 0.000000 -1.000000 0.000000
vn 1.000000 0.000000 0.000000
vn 1.000000 0.000000 0.000000
vn 1.000000 0.000000 0.000000
vn 1.000000 0.000000 0.000000
vn -1.000000 0.000000 0.000000
vn -1.000000 0.000000 0.000000
vn -1.000000 0.000000 0.000000
vn -1.000000 0.000000 0.000000
s off
g pCube6
usemtl initialShadingGroup
f 63/115/183 64/116/184 66/118/185 65/117/186
f 65/117/187 66/118/188 68/120/189 67/119/190
f 67/119/191 68/120/192 70/122/193 69/121/194
f 69/121/195 70/122/196 64/124/197 63/123/198
f 64/116/199 70/125/200 68/126/201 66/118/202
f 69/127/203 63/115/204 65/117/205 67/128/206
g default
v 5.000000 1.641803 -0.117557
v 5.000000 1.541803 -0.190211
v 5.000000 1.418197 -0.190211
v 5.000000 1.318197 -0.117557
v 5.000000 1.280000 0.000000
v 5.000000 1.318197 0.117557
v 5.000000 1.418197 0.190211
v 5.000000 1.541803 0.190211
v 5.000000 1.641803 0.117557
v 5.000000 1.680000 0.000000
v -5.000000 1.641803 -0.117557
v -5.000000 1.541803 -0.190211
v -5.000000 1.418197 -0.190211
v -5.000000 1.318197 -0.117557
v -5.000000 1.280000 0.000000
v -5.000000 1.318197 0.117557
v -5.000000 1.418197 0.190211
v -5.000000 1.541803 0.190211
v -5.000000 1.641803 0.117557
v -5.000000 1.680000 0.000000
v 5.000000 1.480000 0.000000
v -5.000000 1.480000 0.000000
vt 0.626409 0.064409
vt 0.548284 0.007647
vt 0.451716 0.007647
vt 0.373591 0.064409
vt 0.343750 0.156250
vt 0.373591 0.248091
vt 0.451716 0.304853
vt 0.548284 0.304853
vt 0.626409 0.248091
vt 0.656250 0.156250
vt 0.375000 0.312500
vt 0.400000 0.312500
vt 0.425000 0.312500
vt 0.450000 0.312500
vt 0.475000 0.312500
vt 0.500000 0.312500
vt 0.525000 0.312500
vt 0.550000 0.312500
vt 0.575000 0.312500
vt 0.600000 0.312500
vt 0.625000 0.312500
vt 0.375000 0.688440
vt 0.400000 0.688440
vt 0.425000 0.688440
vt 0.450000 0.688440
vt 0.475000 0.688440
vt 0.500000 0.688440
vt 0.525000 0.688440
vt 0.550000 0.688440
vt 0.575000 0.688440
vt 0.600000 0.688440
vt 0.625000 0.688440
vt 0.626409 0.751909
vt 0.548284 0.695147
vt 0.451716 0.695147
vt 0.373591 0.751909
vt 0.343750 0.843750
vt 0.373591 0.935591
vt 0.451716 0.992353
vt 0.548284 0.992353
vt 0.626409 0.935591
vt 0.656250 0.843750
vt 0.500000 0.150000
vt 0.500000 0.837500
vn 0.000000 0.587785 -0.809017
vn 0.000000 0.587785 -0.809017
vn 0.000000 0.587785 -0.809017
vn 0.000000 0.587785 -0.809017
vn -0.000000 -0.000000 -1.000000
vn -0.000000 -0.000000 -1.000000
vn -0.000000 -0.000000 -1.000000
vn -0.000000 -0.000000 -1.000000
vn -0.000000 -0.587785 -0.809017
vn -0.000000 -0.587785 -0.809017
vn -0.000000 -0.587785 -0.809017
vn -0.000000 -0.587785 -0.809017
vn -0.000000 -0.951057 -0.309017
vn -0.000000 -0.951057 -0.309017
vn -0.000000 -0.951057 -0.309017
vn -0.000000 -0.951057 -0.309017
vn 0.000000 -0.951057 0.309017
vn 0.000000 -0.951057 0.309017
vn 0.000000 -0.951057 0.309017
vn 0.000000 -0.951057 0.309017
vn 0.000000 -0.587785 0.809017
vn 0.000000 -0.587785 0.809017
vn 0.000000 -0.587785 0.809017
vn 0.000000 -0.587785 0.809017
vn 0.000000 0.000000 1.000000
vn 0.000000 0.000000 1.000000
vn 0.000000 0.000000 1.000000
vn 0.000000 0.000000 1.000000
vn 0.000000 0.587785 0.809017
vn 0.000000 0.587785 0.809017
vn 0.000000 0.587785 0.809017
vn 0.000000 0.587785 0.809017
vn 0.000000 0.951056 0.309017
vn 0.000000 0.951056 0.309017
vn 0.000000 0.951056 0.309017
vn 0.000000 0.951056 0.309017
vn 0.000000 0.951057 -0.309017
vn 0.000000 0.951057 -0.309017
vn 0.000000 0.951057 -0.309017
vn 0.000000 0.951057 -0.309017
vn 1.000000 0.000000 0.000001
vn 1.000000 0.000000 0.000000
vn 1.000000 0.000000 -0.000000
vn 1.000000 0.000000 0.000001
vn 1.000000 0.000000 0.000000
vn 1.000000 0.000000 0.000000
vn 1.000000 0.000000 -0.000001
vn 1.000000 0.000000 -0.000001
vn 1.000000 0.000000 0.000000
vn 1.000000 0.000000 0.000000
vn 1.000000 0.000000 0.000000
vn -1.000000 0.000000 0.000000
vn -1.000000 0.000000 0.000001
vn -1.000000 0.000000 0.000000
vn -1.000000 0.000000 0.000000
vn -1.000000 0.000000 -0.000001
vn -1.000000 0.000000 0.000000
vn -1.000000 0.000000 0.000000
vn -1.000000 0.000000 0.000000
vn -1.000000 0.000000 0.000000
vn -1.000000 0.000000 0.000000
vn -1.000000 0.000000 0.000000
s off
g pCylinder2
usemtl initialShadingGroup
f 71/139/207 72/140/208 82/151/209 81/150/210
f 72/140/211 73/141/212 83/152/213 82/151/214
f 73/141/215 74/142/216 84/153/217 83/152/218
f 74/142/219 75/143/220 85/154/221 84/153/222
f 75/143/223 76/144/224 86/155/225 85/154/226
f 76/144/227 77/145/228 87/156/229 86/155/230
f 77/145/231 78/146/232 88/157/233 87/156/234
f 78/146/235 79/147/236 89/158/237 88/157/238
f 79/147/239 80/148/240 90/159/241 89/158/242
f 80/148/243 71/149/244 81/160/245 90/159/246
s 1
f 72/130/247 71/129/248 91/171/249
f 73/131/250 72/130/247 91/171/249
f 74/132/251 73/131/250 91/171/249
f 75/133/252 74/132/251 91/171/249
f 76/134/253 75/133/252 91/171/249
f 77/135/254 76/134/253 91/171/249
f 78/136/255 77/135/254 91/171/249
f 79/137/256 78/136/255 91/171/249
f 80/138/257 79/137/256 91/171/249
f 71/129/248 80/138/257 91/171/249
s 2
f 81/169/258 82/168/259 92/172/260
f 82/168/259 83/167/261 92/172/260
f 83/167/261 84/166/262 92/172/260
f 84/166/262 85/165/263 92/172/260
f 85/165/263 86/164/264 92/172/260
f 86/164/264 87/163/265 92/172/260
f 87/163/265 88/162/266 92/172/260
f 88/162/266 89/161/267 92/172/260
f 89/161/267 90/170/268 92/172/260
f 90/170/268 81/169/258 92/172/260
g default
v 0.809017 2.778898 0.200733
v 0.309017 3.142169 0.200733
v -0.309017 3.142169 0.200733
v -0.809017 2.778898 0.200733
v -1.000000 2.191112 0.200733
v -0.809017 1.603327 0.200733
v -0.309017 1.240056 0.200733
v 0.309017 1.240056 0.200733
v 0.809017 1.603327 0.200733
v 1.000000 2.191112 0.200733
v 0.809017 2.778898 0.253557
v 0.309017 3.142169 0.253557
v -0.309017 3.142169 0.253557
v -0.809017 2.778898 0.253557
v -1.000000 2.191112 0.253557
v -0.809017 1.603327 0.253557
v -0.309017 1.240056 0.253557
v 0.309017 1.240056 0.253557
v 0.809017 1.603327 0.253557
v 1.000000 2.191112 0.253557
v 0.000000 2.191112 0.200733
v 0.000000 2.191112 0.253557
vt 0.626409 0.064409
vt 0.548284 0.007647
vt 0.451716 0.007647
vt 0.373591 0.064409
vt 0.343750 0.156250
vt 0.373591 0.248091
vt 0.451716 0.304853
vt 0.548284 0.304853
vt 0.626409 0.248091
vt 0.656250 0.156250
vt 0.375000 0.312500
vt 0.400000 0.312500
vt 0.425000 0.312500
vt 0.450000 0.312500
vt 0.475000 0.312500
vt 0.500000 0.312500
vt 0.525000 0.312500
vt 0.550000 0.312500
vt 0.575000 0.312500
vt 0.600000 0.312500
vt 0.625000 0.312500
vt 0.375000 0.688440
vt 0.400000 0.688440
vt 0.425000 0.688440
vt 0.450000 0.688440
vt 0.475000 0.688440
vt 0.500000 0.688440
vt 0.525000 0.688440
vt 0.550000 0.688440
vt 0.575000 0.688440
vt 0.600000 0.688440
vt 0.625000 0.688440
vt 0.626409 0.751909
vt 0.548284 0.695147
vt 0.451716 0.695147
vt 0.373591 0.751909
vt 0.343750 0.843750
vt 0.373591 0.935591
vt 0.451716 0.992353
vt 0.548284 0.992353
vt 0.626409 0.935591
vt 0.656250 0.843750
vt 0.500000 0.150000
vt 0.500000 0.837500
vn 0.587785 0.809017 0.000000
vn 0.587785 0.809017 0.000000
vn 0.587785 0.809017 0.000000
vn 0.587785 0.809017 0.000000
vn -0.000000 1.000000 0.000000
vn -0.000000 1.000000 0.000000
vn -0.000000 1.000000 0.000000
vn -0.000000 1.000000 0.000000
vn -0.587785 0.809017 0.000000
vn -0.587785 0.809017 0.000000
vn -0.587785 0.809017 0.000000
vn -0.587785 0.809017 0.000000
vn -0.951057 0.309017 0.000000
vn -0.951057 0.309017 0.000000
vn -0.951057 0.309017 0.000000
vn -0.951057 0.309017 0.000000
vn -0.951057 -0.309017 0.000000
vn -0.951057 -0.309017 0.000000
vn -0.951057 -0.309017 0.000000
vn -0.951057 -0.309017 0.000000
vn -0.587785 -0.809017 0.000000
vn -0.587785 -0.809017 0.000000
vn -0.587785 -0.809017 0.000000
vn -0.587785 -0.809017 0.000000
vn 0.000000 -1.000000 0.000000
vn 0.000000 -1.000000 0.000000
vn 0.000000 -1.000000 0.000000
vn 0.000000 -1.000000 0.000000
vn 0.587785 -0.809017 0.000000
vn 0.587785 -0.809017 0.000000
vn 0.587785 -0.809017 0.000000
vn 0.587785 -0.809017 0.000000
vn 0.951057 -0.309017 0.000000
vn 0.951057 -0.309017 0.000000
vn 0.951057 -0.309017 0.000000
vn 0.951057 -0.309017 0.000000
vn 0.951057 0.309017 0.000000
vn 0.951057 0.309017 0.000000
vn 0.951057 0.309017 0.000000
vn 0.951057 0.309017 0.000000
vn 0.000000 -0.000000 -1.000000
vn 0.000000 -0.000000 -1.000000
vn 0.000000 0.000000 -1.000000
vn 0.000000 -0.000000 -1.000000
vn 0.000000 -0.000000 -1.000000
vn 0.000000 -0.000000 -1.000000
vn 0.000000 0.000000 -1.000000
vn 0.000000 0.000000 -1.000000
vn 0.000000 -0.000000 -1.000000
vn 0.000000 -0.000000 -1.000000
vn 0.000000 -0.000000 -1.000000
vn 0.000000 0.000000 1.000000
vn 0.000000 -0.000000 1.000000
vn 0.000000 0.000000 1.000000
vn 0.000000 -0.000000 1.000000
vn 0.000000 0.000000 1.000000
vn 0.000000 0.000000 1.000000
vn 0.000000 0.000000 1.000000
vn 0.000000 0.000000 1.000000
vn 0.000000 0.000000 1.000000
vn 0.000000 0.000000 1.000000
vn 0.000000 0.000000 1.000000
s off
g pCylinder3
usemtl initialShadingGroup
f 93/183/269 94/184/270 104/195/271 103/194/272
f 94/184/273 95/185/274 105/196/275 104/195/276
f 95/185/277 96/186/278 106/197/279 105/196/280
f 96/186/281 97/187/282 107/198/283 106/197/284
f 97/187/285 98/188/286 108/199/287 107/198/288
f 98/188/289 99/189/290 109/200/291 108/199/292
f 99/189/293 100/190/294 110/201/295 109/200/296
f 100/190/297 101/191/298 111/202/299 110/201/300
f 101/191/301 102/192/302 112/203/303 111/202/304
f 102/192/305 93/193/306 103/204/307 112/203/308
s 1
f 94/174/309 93/173/310 113/215/311
f 95/175/312 94/174/309 113/215/311
f 96/176/313 95/175/312 113/215/311
f 97/177/314 96/176/313 113/215/311
f 98/178/315 97/177/314 113/215/311
f 99/179/316 98/178/315 113/215/311
f 100/180/317 99/179/316 113/215/311
f 101/181/318 100/180/317 113/215/311
f 102/182/319 101/181/318 113/215/311
f 93/173/310 102/182/319 113/215/311
s 2
f 103/213/320 104/212/321 114/216/322
f 104/212/321 105/211/323 114/216/322
f 105/211/323 106/210/324 114/216/322
f 106/210/324 107/209/325 114/216/322
f 107/209/325 108/208/326 114/216/322
f 108/208/326 109/207/327 114/216/322
f 109/207/327 110/206/328 114/216/322
f 110/206/328 111/205/329 114/216/322
f 111/205/329 112/214/330 114/216/322
f 112/214/330 103/213/320 114/216/322
